<?xml version="1.0" encoding="iso-8859-1"?>
<!-- Generator: Adobe Illustrator 19.0.0, SVG Export Plug-In . SVG Version: 6.00 Build 0)  -->
<svg version="1.1" id="Capa_1" xmlns="http://www.w3.org/2000/svg" xmlns:xlink="http://www.w3.org/1999/xlink" x="0px" y="0px"
	 viewBox="0 0 182.089 182.089" style="enable-background:new 0 0 182.089 182.089;" xml:space="preserve">
<g>
	<g>
		<g>
			<path style="fill:#B2A393;" d="M89.544,82.478c-16.932,0.757-33.739,11.889-33.662,32.39l0.153,22.713
				c0.08,21.309,16.573,31.488,33.509,31.48V82.478z"/>
			<path style="fill:#9B8B7C;" d="M89.544,82.478c16.938,0.629,33.434,11.635,33.511,32.136l0.152,22.712
				c0.081,21.309-16.727,31.614-33.663,31.735V82.478z"/>
		</g>
	</g>
	<g>
		<path style="fill:#D3C3B6;" d="M89.543,102.49c-13.609,0.827-24.428,14.013-24.428,30.157c0,16.145,10.818,29.332,24.428,30.158
			V102.49z"/>
		<path style="fill:#B2A393;" d="M89.545,102.49c13.608,0.827,24.428,14.013,24.428,30.157c0,16.145-10.819,29.332-24.428,30.158
			V102.49z"/>
	</g>
	<g>
		<g>
			<path style="fill:#D3C3B6;" d="M54.511,89.348c-10.273,0.487-18.315,8.263-18.315,17.783c0,9.52,8.042,17.297,18.315,17.783
				V89.348z"/>
			<path style="fill:#CCBBAC;" d="M54.511,89.348c10.272,0.487,18.564,8.263,18.564,17.783c0,9.52-8.292,17.297-18.564,17.783
				V89.348z"/>
		</g>
		<g>
			<path style="fill:#D3C3B6;" d="M124.329,89.348c-10.272,0.487-18.314,8.263-18.314,17.783c0,9.52,8.042,17.297,18.314,17.783
				V89.348z"/>
			<path style="fill:#CCBBAC;" d="M124.329,89.348c10.272,0.487,18.564,8.263,18.564,17.783c0,9.52-8.292,17.297-18.564,17.783
				V89.348z"/>
		</g>
		<g>
			<g>
				<path style="fill:#FDBEBD;" d="M64.203,111.807c0,5.285-4.408,9.568-9.693,9.568c-5.285,0-9.443-4.283-9.443-9.568
					c0-5.284,4.158-9.567,9.443-9.567C59.795,102.24,64.203,106.523,64.203,111.807z"/>
				<path style="fill:#FDBEBD;" d="M58.888,96.569c0,2.349-2.029,4.252-4.377,4.252c-2.349,0-4.128-1.903-4.128-4.252
					c0-2.349,1.779-4.253,4.128-4.253C56.859,92.316,58.888,94.22,58.888,96.569z"/>
				<g>
					<circle style="fill:#FDBEBD;" cx="44.004" cy="99.403" r="4.253"/>
					<circle style="fill:#FDBEBD;" cx="65.267" cy="99.403" r="4.253"/>
				</g>
			</g>
			<g>
				<path style="fill:#FFABAB;" d="M54.511,102.24c-0.169,0,0.167,0.017,0,0.025v19.085c0.167,0.009-0.169,0.025,0,0.025
					c5.285,0,9.693-4.283,9.693-9.568C64.203,106.523,59.795,102.24,54.511,102.24z"/>
				<path style="fill:#FFABAB;" d="M54.511,92.316c-0.171,0,0.166,0.03,0,0.051v8.403c0.166,0.021-0.171,0.051,0,0.051
					c2.349,0,4.377-1.903,4.377-4.252C58.888,94.22,56.859,92.316,54.511,92.316z"/>
				<g>
					<circle style="fill:#FFABAB;" cx="65.267" cy="99.403" r="4.253"/>
				</g>
			</g>
		</g>
		<g>
			<g>
				<path style="fill:#FDBEBD;" d="M134.023,111.807c0,5.285-4.409,9.568-9.693,9.568c-5.285,0-9.443-4.283-9.443-9.568
					c0-5.284,4.158-9.567,9.443-9.567C129.614,102.24,134.023,106.523,134.023,111.807z"/>
				<path style="fill:#FDBEBD;" d="M128.707,96.569c0,2.349-2.029,4.252-4.377,4.252c-2.349,0-4.128-1.903-4.128-4.252
					c0-2.349,1.779-4.253,4.128-4.253C126.678,92.316,128.707,94.22,128.707,96.569z"/>
				<g>
					<circle style="fill:#FDBEBD;" cx="113.823" cy="99.403" r="4.253"/>
					<circle style="fill:#FDBEBD;" cx="135.086" cy="99.403" r="4.253"/>
				</g>
			</g>
			<g>
				<path style="fill:#FFABAB;" d="M124.329,102.24c-0.169,0,0.167,0.017,0,0.025v19.085c0.167,0.009-0.169,0.025,0,0.025
					c5.285,0,9.693-4.283,9.693-9.568C134.023,106.523,129.614,102.24,124.329,102.24z"/>
				<path style="fill:#FFABAB;" d="M124.329,92.316c-0.171,0,0.166,0.03,0,0.051v8.403c0.166,0.021-0.171,0.051,0,0.051
					c2.349,0,4.377-1.903,4.377-4.252C128.707,94.22,126.678,92.316,124.329,92.316z"/>
				<g>
					<circle style="fill:#FFABAB;" cx="135.086" cy="99.403" r="4.253"/>
				</g>
			</g>
		</g>
	</g>
	<g>
		<g>
			<polygon style="fill:#B2A393;" points="37.957,182.089 91.197,169.061 57.961,144.755 37.957,146.522 			"/>
			<g>
				<path style="fill:#D3C3B6;" d="M37.957,146.522c-10.273,0.487-18.853,8.263-18.853,17.783c0,9.52,8.58,17.296,18.853,17.783
					V146.522z"/>
				<path style="fill:#CCBBAC;" d="M37.957,146.522c10.272,0.487,18.027,8.263,18.027,17.783c0,9.52-7.755,17.296-18.027,17.783
					V146.522z"/>
			</g>
			<g>
				<g>
					<path style="fill:#FDBEBD;" d="M47.898,168.807c0,5.285-4.656,9.568-9.941,9.568c-5.285,0-9.195-4.283-9.195-9.568
						c0-5.284,3.91-9.567,9.195-9.567C43.242,159.24,47.898,163.523,47.898,168.807z"/>
					<path style="fill:#FDBEBD;" d="M42.582,153.569c0,2.349-2.277,4.252-4.625,4.252c-2.349,0-3.88-1.903-3.88-4.252
						c0-2.349,1.531-4.253,3.88-4.253C40.305,149.316,42.582,151.22,42.582,153.569z"/>
					<g>
						<circle style="fill:#FDBEBD;" cx="27.698" cy="156.403" r="4.253"/>
						<circle style="fill:#FDBEBD;" cx="48.961" cy="156.403" r="4.252"/>
					</g>
				</g>
				<g>
					<path style="fill:#FFABAB;" d="M37.957,159.24c-0.169,0,0.167,0.017,0,0.025v19.085c0.167,0.009-0.169,0.025,0,0.025
						c5.285,0,9.941-4.283,9.941-9.568C47.898,163.523,43.242,159.24,37.957,159.24z"/>
					<path style="fill:#FFABAB;" d="M37.957,149.316c-0.171,0,0.166,0.03,0,0.051v8.403c0.166,0.02-0.171,0.051,0,0.051
						c2.349,0,4.625-1.903,4.625-4.252C42.582,151.22,40.305,149.316,37.957,149.316z"/>
					<g>
						<circle style="fill:#FFABAB;" cx="48.961" cy="156.403" r="4.252"/>
					</g>
				</g>
			</g>
		</g>
		<g>
			<polygon style="fill:#9B8B7C;" points="142.23,182.089 88.577,169.061 121.812,144.755 142.23,146.522 			"/>
			<g>
				<path style="fill:#D3C3B6;" d="M144.42,146.522c-10.274,0.487-18.316,8.263-18.316,17.783c0,9.52,8.042,17.296,18.316,17.783
					V146.522z"/>
				<path style="fill:#CCBBAC;" d="M144.42,146.522c10.273,0.487,18.564,8.263,18.564,17.783c0,9.52-8.291,17.296-18.564,17.783
					V146.522z"/>
			</g>
			<g>
				<g>
					<path style="fill:#FDBEBD;" d="M154.113,169.307c0,5.285-4.408,9.568-9.693,9.568c-5.285,0-9.443-4.283-9.443-9.568
						c0-5.284,4.158-9.567,9.443-9.567C149.705,159.74,154.113,164.023,154.113,169.307z"/>
					<path style="fill:#FDBEBD;" d="M148.797,154.069c0,2.349-2.029,4.252-4.377,4.252c-2.35,0-4.129-1.903-4.129-4.252
						c0-2.349,1.779-4.253,4.129-4.253C146.768,149.816,148.797,151.72,148.797,154.069z"/>
					<g>
						<circle style="fill:#FDBEBD;" cx="133.913" cy="156.903" r="4.253"/>
						<circle style="fill:#FDBEBD;" cx="155.176" cy="156.903" r="4.252"/>
					</g>
				</g>
				<g>
					<path style="fill:#FFABAB;" d="M144.42,159.74c-0.17,0,0.166,0.017,0,0.025v19.085c0.166,0.009-0.17,0.025,0,0.025
						c5.285,0,9.693-4.283,9.693-9.568C154.113,164.023,149.705,159.74,144.42,159.74z"/>
					<path style="fill:#FFABAB;" d="M144.42,149.816c-0.172,0,0.166,0.03,0,0.051v8.403c0.166,0.02-0.172,0.051,0,0.051
						c2.348,0,4.377-1.903,4.377-4.252C148.797,151.72,146.768,149.816,144.42,149.816z"/>
					<g>
						<circle style="fill:#FFABAB;" cx="155.176" cy="156.903" r="4.252"/>
					</g>
				</g>
			</g>
		</g>
	</g>
	<g>
		<g>
			<path style="fill:#B2A393;" d="M37.856,0.015c-2.206,37.497,8.823,39.703,8.823,39.703L74.25,15.456
				C57.707-1.088,37.856,0.015,37.856,0.015z"/>
			<path style="fill:#A08E7D;" d="M141.233,0.015c2.206,37.497-8.822,39.703-8.822,39.703l-27.572-24.263
				C121.382-1.088,141.233,0.015,141.233,0.015z"/>
		</g>
		<g>
			<path style="fill:#D3C3B6;" d="M89.545,9.95C63.93,10.141,43.04,30.139,43.04,54.792c0,24.652,20.89,44.65,46.504,44.842V9.95z"
				/>
			<path style="fill:#B2A393;" d="M89.545,9.95c25.616,0.191,46.504,20.189,46.504,44.842c0,24.652-20.889,44.65-46.504,44.842V9.95
				z"/>
		</g>
		<g>
			<path style="fill:#211A18;" d="M76.473,50.637c0.004,1.967-1.584,3.565-3.551,3.569l0,0c-1.966,0.007-3.566-1.584-3.572-3.55
				l-0.017-6.233c-0.005-1.967,1.586-3.565,3.553-3.572l0,0c1.966-0.004,3.564,1.586,3.57,3.553L76.473,50.637z"/>
			<path style="fill:#211A18;" d="M109.758,50.545c0.005,1.967-1.586,3.566-3.552,3.571l0,0c-1.968,0.006-3.566-1.585-3.574-3.551
				l-0.016-6.232c-0.005-1.968,1.585-3.566,3.552-3.571l0,0c1.968-0.007,3.568,1.583,3.572,3.55L109.758,50.545z"/>
		</g>
		<g>
			<path style="fill:#FFE5B5;" d="M89.545,56.998c-13.769,0.071-24.998,7.612-24.998,16.905c0,9.295,11.229,16.835,24.998,16.907
				V56.998z"/>
			<path style="fill:#FFD5B3;" d="M89.545,56.998c13.771,0.071,24.999,7.612,24.999,16.905c0,9.295-11.229,16.835-24.999,16.907
				V56.998z"/>
		</g>
		<g>
			<path style="fill:#FAAAA9;" d="M89.545,52.953c-4.854,0.176-8.711,2.972-8.711,6.396c0,3.425,3.858,6.222,8.711,6.397V52.953z"/>
			<path style="fill:#FC9797;" d="M89.545,52.953c4.853,0.176,8.711,2.972,8.711,6.396c0,3.425-3.858,6.222-8.711,6.397V52.953z"/>
		</g>
	</g>
</g>
<g>
</g>
<g>
</g>
<g>
</g>
<g>
</g>
<g>
</g>
<g>
</g>
<g>
</g>
<g>
</g>
<g>
</g>
<g>
</g>
<g>
</g>
<g>
</g>
<g>
</g>
<g>
</g>
<g>
</g>
</svg>
