<?xml version="1.0" encoding="iso-8859-1"?>
<!-- Generator: Adobe Illustrator 19.0.0, SVG Export Plug-In . SVG Version: 6.00 Build 0)  -->
<svg version="1.1" id="Capa_1" xmlns="http://www.w3.org/2000/svg" xmlns:xlink="http://www.w3.org/1999/xlink" x="0px" y="0px"
	 viewBox="0 0 251.146 251.146" style="enable-background:new 0 0 251.146 251.146;" xml:space="preserve">
<g>
	<g>
		<g>
			<path style="fill:#F9A52B;" d="M125.573,151.536c-16.932,0.757-33.74,11.889-33.663,32.389c0,0.001,0.153,22.713,0.153,22.713
				c0.08,21.308,16.574,31.488,33.509,31.48V151.536z"/>
			<path style="fill:#E58C17;" d="M125.573,151.536c16.938,0.629,33.433,11.635,33.51,32.135c0.001,0,0.153,22.712,0.153,22.712
				c0.081,21.309-16.727,31.615-33.663,31.735V151.536z"/>
		</g>
		<g>
			<defs>
				<polygon id="SVGID_1_" points="138.821,74.161 125.573,74.161 112.327,74.161 104.803,176.689 125.573,176.689 146.345,176.689 
									"/>
			</defs>
			<clipPath id="SVGID_2_">
				<use xlink:href="#SVGID_1_"  style="overflow:visible;"/>
			</clipPath>
			<g style="clip-path:url(#SVGID_2_);">
				<polygon style="fill:#F9A52B;" points="112.327,74.161 104.803,176.689 125.573,176.689 125.573,74.161 				"/>
				<polygon style="fill:#E58C17;" points="138.821,74.161 146.345,176.689 125.573,176.689 125.573,74.161 				"/>
			</g>
			<path style="clip-path:url(#SVGID_2_);fill:#8C4F06;" d="M121.505,117.47c0,2.929-2.374,5.303-5.303,5.303h-2.652
				c-2.928,0-5.303-2.374-5.303-5.303l0,0c0-2.929,2.375-5.303,5.303-5.303h2.652C119.131,112.168,121.505,114.542,121.505,117.47
				L121.505,117.47z"/>
			<path style="clip-path:url(#SVGID_2_);fill:#562F1F;" d="M155.092,128.519c0,4.149-3.363,7.513-7.513,7.513h-2.651
				c-4.149,0-7.513-3.364-7.513-7.513l0,0c0-4.149,3.364-7.513,7.513-7.513h2.651C151.728,121.006,155.092,124.37,155.092,128.519
				L155.092,128.519z"/>
			<path style="clip-path:url(#SVGID_2_);fill:#8C4F06;" d="M140.066,142.219c0,5.37-4.353,9.722-9.723,9.722h-6.187
				c-5.37,0-9.722-4.352-9.722-9.722l0,0c0-5.37,4.353-9.723,9.722-9.723h6.187C135.713,132.496,140.066,136.849,140.066,142.219
				L140.066,142.219z"/>
			<path style="clip-path:url(#SVGID_2_);fill:#562F1F;" d="M130.344,132.496h-4.419v19.445h4.419c5.37,0,9.723-4.352,9.723-9.722
				C140.066,136.849,135.713,132.496,130.344,132.496z"/>
		</g>
	</g>
	<g>
		<path style="fill:#FFCE55;" d="M125.572,162.548c-13.609,0.827-24.428,14.012-24.428,30.158c0,16.144,10.818,29.331,24.428,30.157
			V162.548z"/>
		<path style="fill:#F2A74E;" d="M125.574,162.548c13.608,0.827,24.428,14.012,24.428,30.158c0,16.144-10.819,29.331-24.428,30.157
			V162.548z"/>
	</g>
	<g>
		<g>
			<path style="fill:#F9A52B;" d="M104.744,31.264c2.753,4.61,1.248,10.579-3.362,13.332L76.341,59.553
				c-4.61,2.753-10.579,1.248-13.332-3.362l0,0c-2.754-4.61-1.249-10.579,3.362-13.332l25.041-14.957
				C96.021,25.149,101.99,26.654,104.744,31.264L104.744,31.264z"/>
			<path style="fill:#E58C17;" d="M124.065,27.51c-0.827,5.306,2.805,10.276,8.11,11.103l28.82,4.49
				c5.306,0.826,10.276-2.805,11.103-8.11l0,0c0.827-5.306-2.804-10.277-8.11-11.103l-28.82-4.49
				C129.863,18.573,124.892,22.204,124.065,27.51L124.065,27.51z"/>
		</g>
		<g>
			<path style="fill:#774730;" d="M96.863,24.612c1.54,2.048,1.128,4.957-0.92,6.497l0,0c-2.049,1.54-4.958,1.128-6.498-0.92
				L80.15,17.825c-1.54-2.048-1.127-4.958,0.921-6.497l0,0c2.048-1.54,4.957-1.128,6.497,0.92L96.863,24.612z"/>
			<path style="fill:#562F1F;" d="M128.881,18.39c-0.66,2.476,0.811,5.019,3.287,5.68l0,0c2.476,0.661,5.019-0.811,5.68-3.288
				l3.989-14.944c0.661-2.476-0.812-5.018-3.288-5.68l0,0c-2.476-0.661-5.019,0.811-5.679,3.288L128.881,18.39z"/>
		</g>
		<g>
			<path style="fill:#FFCE55;" d="M111.705,15.494c-16.493,3.911-30.727,17.953-26.816,38.077c0.001,0,7.705,39.649,7.705,39.649
				c4.064,20.917,22.364,27.795,38.999,24.62L111.705,15.494z"/>
			<path style="fill:#F2A74E;" d="M111.705,15.494c16.756-2.55,35.213,5.139,39.124,25.263c0.001,0,7.705,39.648,7.705,39.648
				c4.065,20.918-10.327,34.148-26.941,37.434L111.705,15.494z"/>
		</g>
		<g>
			<path style="fill:#211A18;" d="M110.236,70.119c0.34,1.75-0.802,3.445-2.553,3.785l0,0c-1.75,0.34-3.446-0.803-3.786-2.553
				l-1.078-5.548c-0.34-1.751,0.804-3.446,2.555-3.786l0,0c1.75-0.34,3.445,0.804,3.785,2.554L110.236,70.119z"/>
			<path style="fill:#211A18;" d="M139.863,64.362c0.34,1.75-0.804,3.445-2.555,3.785l0,0c-1.751,0.341-3.446-0.803-3.786-2.553
				l-1.078-5.548c-0.34-1.751,0.804-3.446,2.555-3.786l0,0c1.751-0.34,3.446,0.803,3.787,2.553L139.863,64.362z"/>
		</g>
		<g>
			<path style="fill:#FFE5B5;" d="M91.607,88.146c0.6,3.084,0.986,5.074,0.986,5.074c4.064,20.917,22.364,27.795,38.999,24.62
				l-7.015-36.101L91.607,88.146z"/>
			<path style="fill:#FFD5B3;" d="M124.578,81.739l7.015,36.101c16.614-3.286,31.006-16.516,26.941-37.434
				c0,0-0.387-1.99-0.986-5.074L124.578,81.739z"/>
		</g>
		<g>
			<path style="fill:#774730;" d="M118.098,105.435c1.35,1.749,1.027,4.26-0.722,5.61l0,0c-1.748,1.35-4.26,1.027-5.61-0.722
				l-1.223-1.583c-1.349-1.749-1.026-4.26,0.722-5.61l0,0c1.748-1.35,4.26-1.026,5.611,0.722L118.098,105.435z"/>
			<path style="fill:#774730;" d="M138.89,102.343c-0.783,2.066,0.257,4.375,2.323,5.157l0,0c2.067,0.783,4.375-0.258,5.158-2.323
				l0.708-1.87c0.782-2.066-0.258-4.375-2.323-5.158l0,0c-2.066-0.782-4.375,0.259-5.158,2.324L138.89,102.343z"/>
		</g>
	</g>
	<g>
		<g>
			<path style="fill:#774730;" d="M93.753,148.406c-10.273,0.487-18.439,8.263-18.439,17.783c0,9.52,8.166,17.296,18.439,17.783
				V148.406z"/>
			<path style="fill:#562F1F;" d="M93.755,148.406c10.272,0.487,18.439,8.263,18.439,17.783c0,9.52-8.167,17.296-18.439,17.783
				V148.406z"/>
		</g>
		<g>
			<path style="fill:#774730;" d="M157.392,148.406c-10.273,0.487-18.439,8.263-18.439,17.783c0,9.52,8.166,17.296,18.439,17.783
				V148.406z"/>
			<path style="fill:#562F1F;" d="M157.393,148.406c10.273,0.487,18.439,8.263,18.439,17.783c0,9.52-8.166,17.296-18.439,17.783
				V148.406z"/>
		</g>
	</g>
	<g>
		<g>
			<polygon style="fill:#F9A52B;" points="71.217,251.146 124.869,238.118 91.633,213.812 71.217,215.579 			"/>
			<g>
				<path style="fill:#774730;" d="M71.215,215.579c-10.273,0.488-18.439,8.263-18.439,17.784c0,9.52,8.166,17.296,18.439,17.783
					V215.579z"/>
				<path style="fill:#562F1F;" d="M71.217,215.579c10.272,0.488,18.439,8.263,18.439,17.784c0,9.52-8.167,17.296-18.439,17.783
					V215.579z"/>
			</g>
		</g>
		<g>
			<polygon style="fill:#E58C17;" points="177.901,251.146 124.248,238.118 157.484,213.812 177.901,215.579 			"/>
			<g>
				<path style="fill:#774730;" d="M179.93,215.579c-10.273,0.488-18.439,8.263-18.439,17.784c0,9.52,8.166,17.296,18.439,17.783
					V215.579z"/>
				<path style="fill:#562F1F;" d="M179.932,215.579c10.272,0.488,18.439,8.263,18.439,17.784c0,9.52-8.167,17.296-18.439,17.783
					V215.579z"/>
			</g>
		</g>
	</g>
</g>
<g>
</g>
<g>
</g>
<g>
</g>
<g>
</g>
<g>
</g>
<g>
</g>
<g>
</g>
<g>
</g>
<g>
</g>
<g>
</g>
<g>
</g>
<g>
</g>
<g>
</g>
<g>
</g>
<g>
</g>
</svg>
