<?xml version="1.0" encoding="iso-8859-1"?>
<!-- Generator: Adobe Illustrator 18.0.0, SVG Export Plug-In . SVG Version: 6.00 Build 0)  -->
<!DOCTYPE svg PUBLIC "-//W3C//DTD SVG 1.1//EN" "http://www.w3.org/Graphics/SVG/1.1/DTD/svg11.dtd">
<svg version="1.1" id="Capa_1" xmlns="http://www.w3.org/2000/svg" xmlns:xlink="http://www.w3.org/1999/xlink" x="0px" y="0px"
	 viewBox="0 0 378.643 378.643" style="enable-background:new 0 0 378.643 378.643;" xml:space="preserve">
<g>
	<path style="fill:#CC8632;" d="M275.012,113.172l-35.41,36.46l-43.49,44.78l-33.38,34.38l-43.5,44.79l-33.38,34.37l-43.49,44.78
		l-20.78,21.4c-4.89,5.03-12.94,5.09-17.9,0.13c-4.96-4.96-4.9-13.01,0.13-17.9l38.55-37.44l43.49-42.23l33.38-32.42l43.5-42.24
		l33.38-32.41l43.49-42.24l25.18-24.45L275.012,113.172z"/>
	<polygon style="fill:#EA535E;" points="294.498,83.447 287.868,102.998 300.215,119.544 279.572,119.28 267.651,136.136 
		261.523,116.421 241.809,110.293 258.665,98.373 258.401,77.73 274.947,90.077 	"/>
	<polygon style="fill:#FBB03B;" points="85.852,276.692 85.852,307.952 42.362,352.732 42.362,318.922 	"/>
	<polygon style="fill:#FBB03B;" points="239.602,127.382 239.602,149.632 196.112,194.412 196.112,169.622 	"/>
	<polygon style="fill:#FBB03B;" points="162.732,202.032 162.732,228.792 119.232,273.582 119.232,244.272 	"/>
	<g>
		<path style="fill:#F7DA92;" d="M274.648,57.198c-1.933,0-3.5-1.567-3.5-3.5V4.2c0-1.933,1.567-3.5,3.5-3.5s3.5,1.567,3.5,3.5
			v49.498C278.148,55.631,276.581,57.198,274.648,57.198z"/>
		<path style="fill:#F7DA92;" d="M274.648,208.69c-1.933,0-3.5-1.567-3.5-3.5v-49.498c0-1.933,1.567-3.5,3.5-3.5s3.5,1.567,3.5,3.5
			v49.498C278.148,207.123,276.581,208.69,274.648,208.69z"/>
	</g>
	<g>
		<path style="fill:#F7DA92;" d="M261.447,58.936c-1.546,0-2.96-1.031-3.379-2.595l-7.671-28.63c-0.5-1.867,0.607-3.786,2.475-4.287
			c1.868-0.499,3.787,0.608,4.287,2.475l7.671,28.63c0.5,1.867-0.607,3.786-2.475,4.287
			C262.051,58.897,261.747,58.936,261.447,58.936z"/>
		<path style="fill:#F7DA92;" d="M295.517,186.085c-1.546,0-2.96-1.031-3.379-2.595l-7.672-28.629
			c-0.5-1.867,0.607-3.786,2.475-4.287c1.869-0.5,3.787,0.607,4.287,2.475l7.672,28.629c0.5,1.867-0.607,3.786-2.475,4.287
			C296.122,186.046,295.817,186.085,295.517,186.085z"/>
	</g>
	<g>
		<path style="fill:#F7DA92;" d="M249.153,64.03c-1.209,0-2.386-0.628-3.034-1.75L221.37,19.414
			c-0.967-1.674-0.393-3.814,1.281-4.781c1.672-0.967,3.814-0.393,4.781,1.281l24.749,42.866c0.967,1.674,0.393,3.814-1.281,4.781
			C250.349,63.879,249.747,64.03,249.153,64.03z"/>
		<path style="fill:#F7DA92;" d="M324.899,195.227c-1.209,0-2.386-0.628-3.034-1.75l-24.749-42.866
			c-0.967-1.674-0.393-3.814,1.281-4.781c1.672-0.967,3.814-0.393,4.781,1.281l24.749,42.866c0.967,1.674,0.393,3.814-1.281,4.781
			C326.095,195.075,325.493,195.227,324.899,195.227z"/>
	</g>
	<g>
		<path style="fill:#F7DA92;" d="M238.588,72.134c-0.896,0-1.791-0.342-2.475-1.025l-20.958-20.958c-1.367-1.367-1.367-3.583,0-4.95
			c1.365-1.367,3.582-1.367,4.949,0l20.958,20.958c1.367,1.367,1.367,3.583,0,4.95C240.38,71.793,239.483,72.134,238.588,72.134z"/>
		<path style="fill:#F7DA92;" d="M331.668,165.214c-0.896,0-1.791-0.342-2.475-1.025l-20.959-20.958
			c-1.367-1.367-1.367-3.583,0-4.95c1.365-1.367,3.582-1.367,4.949,0l20.959,20.958c1.367,1.367,1.367,3.583,0,4.95
			C333.46,164.872,332.563,165.214,331.668,165.214z"/>
	</g>
	<g>
		<path style="fill:#F7DA92;" d="M230.48,82.697c-0.594,0-1.196-0.151-1.747-0.469l-42.866-24.749
			c-1.674-0.966-2.248-3.107-1.281-4.781c0.967-1.674,3.108-2.248,4.781-1.281l42.866,24.749c1.674,0.966,2.248,3.107,1.281,4.781
			C232.866,82.069,231.689,82.697,230.48,82.697z"/>
		<path style="fill:#F7DA92;" d="M361.676,158.443c-0.594,0-1.196-0.151-1.747-0.469l-42.866-24.749
			c-1.674-0.966-2.248-3.107-1.281-4.781c0.967-1.674,3.108-2.247,4.781-1.281l42.866,24.749c1.674,0.966,2.248,3.107,1.281,4.781
			C364.062,157.815,362.885,158.443,361.676,158.443z"/>
	</g>
	<g>
		<path style="fill:#F7DA92;" d="M225.39,94.997c-0.3,0-0.604-0.039-0.908-0.12l-28.629-7.671c-1.867-0.5-2.975-2.42-2.475-4.287
			s2.416-2.976,4.287-2.475l28.629,7.671c1.867,0.5,2.975,2.419,2.475,4.286C228.35,93.965,226.936,94.997,225.39,94.997z"/>
		<path style="fill:#F7DA92;" d="M352.54,129.066c-0.3,0-0.604-0.039-0.908-0.12l-28.63-7.671c-1.867-0.5-2.975-2.42-2.475-4.287
			s2.417-2.975,4.287-2.475l28.63,7.671c1.867,0.5,2.975,2.42,2.475,4.287C355.5,128.035,354.086,129.066,352.54,129.066z"/>
	</g>
	<g>
		<path style="fill:#F7DA92;" d="M223.651,108.195h-49.498c-1.933,0-3.5-1.567-3.5-3.5s1.567-3.5,3.5-3.5h49.498
			c1.933,0,3.5,1.567,3.5,3.5S225.584,108.195,223.651,108.195z"/>
		<path style="fill:#F7DA92;" d="M375.143,108.195h-49.497c-1.933,0-3.5-1.567-3.5-3.5s1.567-3.5,3.5-3.5h49.497
			c1.933,0,3.5,1.567,3.5,3.5S377.076,108.195,375.143,108.195z"/>
	</g>
	<g>
		<path style="fill:#F7DA92;" d="M196.757,129.066c-1.546,0-2.96-1.031-3.379-2.595c-0.5-1.867,0.607-3.786,2.475-4.287
			l28.629-7.671c1.869-0.5,3.786,0.608,4.287,2.475c0.5,1.867-0.607,3.786-2.475,4.287l-28.629,7.671
			C197.362,129.027,197.057,129.066,196.757,129.066z"/>
		<path style="fill:#F7DA92;" d="M323.906,94.997c-1.546,0-2.96-1.031-3.379-2.595c-0.5-1.867,0.607-3.786,2.475-4.287l28.63-7.671
			c1.868-0.499,3.787,0.608,4.287,2.475c0.5,1.867-0.607,3.786-2.475,4.287l-28.63,7.671
			C324.51,94.958,324.206,94.997,323.906,94.997z"/>
	</g>
	<g>
		<path style="fill:#F7DA92;" d="M318.816,82.697c-1.209,0-2.386-0.628-3.034-1.75c-0.967-1.674-0.393-3.815,1.281-4.781
			l42.866-24.749c1.673-0.967,3.814-0.393,4.781,1.281c0.967,1.674,0.393,3.815-1.281,4.781l-42.866,24.749
			C320.012,82.546,319.41,82.697,318.816,82.697z"/>
	</g>
	<g>
		<path style="fill:#F7DA92;" d="M310.709,72.134c-0.896,0-1.791-0.342-2.475-1.025c-1.367-1.367-1.367-3.583,0-4.95l20.959-20.958
			c1.367-1.367,3.582-1.367,4.949,0c1.367,1.367,1.367,3.583,0,4.95l-20.959,20.958C312.5,71.793,311.604,72.134,310.709,72.134z"/>
	</g>
	<g>
		<path style="fill:#F7DA92;" d="M300.144,64.03c-0.594,0-1.196-0.151-1.747-0.469c-1.674-0.967-2.248-3.107-1.281-4.781
			l24.749-42.866c0.967-1.674,3.108-2.248,4.781-1.281c1.674,0.967,2.248,3.107,1.281,4.781L303.178,62.28
			C302.53,63.403,301.353,64.03,300.144,64.03z"/>
	</g>
	<g>
		<path style="fill:#F7DA92;" d="M253.78,186.085c-0.3,0-0.604-0.039-0.908-0.12c-1.867-0.5-2.975-2.42-2.475-4.287l7.671-28.629
			c0.5-1.867,2.416-2.975,4.287-2.475c1.867,0.5,2.975,2.42,2.475,4.287l-7.671,28.629
			C256.74,185.054,255.326,186.085,253.78,186.085z"/>
		<path style="fill:#F7DA92;" d="M287.849,58.936c-0.3,0-0.604-0.039-0.908-0.12c-1.867-0.5-2.975-2.419-2.475-4.287l7.672-28.63
			c0.5-1.866,2.417-2.977,4.287-2.475c1.867,0.5,2.975,2.419,2.475,4.287l-7.672,28.63
			C290.809,57.905,289.395,58.936,287.849,58.936z"/>
	</g>
</g>
<g>
</g>
<g>
</g>
<g>
</g>
<g>
</g>
<g>
</g>
<g>
</g>
<g>
</g>
<g>
</g>
<g>
</g>
<g>
</g>
<g>
</g>
<g>
</g>
<g>
</g>
<g>
</g>
<g>
</g>
</svg>
